<svg width="49" height="48" viewBox="0 0 49 48" fill="none" xmlns="http://www.w3.org/2000/svg">
<g clip-path="url(#clip0_2019_413)">
<path d="M27.6667 15C27.6667 14.6022 27.8247 14.2207 28.106 13.9394C28.3873 13.6581 28.7689 13.5 29.1667 13.5H47.1667C47.5645 13.5 47.946 13.6581 48.2273 13.9394C48.5086 14.2207 48.6667 14.6022 48.6667 15C48.6667 15.3979 48.5086 15.7794 48.2273 16.0607C47.946 16.342 47.5645 16.5 47.1667 16.5H29.1667C28.7689 16.5 28.3873 16.342 28.106 16.0607C27.8247 15.7794 27.6667 15.3979 27.6667 15ZM47.1667 22.5H29.1667C28.7689 22.5 28.3873 22.6581 28.106 22.9394C27.8247 23.2207 27.6667 23.6022 27.6667 24C27.6667 24.3979 27.8247 24.7794 28.106 25.0607C28.3873 25.342 28.7689 25.5 29.1667 25.5H47.1667C47.5645 25.5 47.946 25.342 48.2273 25.0607C48.5086 24.7794 48.6667 24.3979 48.6667 24C48.6667 23.6022 48.5086 23.2207 48.2273 22.9394C47.946 22.6581 47.5645 22.5 47.1667 22.5ZM47.1667 31.5H33.6667C33.2689 31.5 32.8873 31.6581 32.606 31.9394C32.3247 32.2207 32.1667 32.6022 32.1667 33C32.1667 33.3979 32.3247 33.7794 32.606 34.0607C32.8873 34.342 33.2689 34.5 33.6667 34.5H47.1667C47.5645 34.5 47.946 34.342 48.2273 34.0607C48.5086 33.7794 48.6667 33.3979 48.6667 33C48.6667 32.6022 48.5086 32.2207 48.2273 31.9394C47.946 31.6581 47.5645 31.5 47.1667 31.5ZM21.1586 26.625C22.6472 25.4784 23.7397 23.8946 24.2827 22.0956C24.8257 20.2967 24.792 18.373 24.1864 16.5941C23.5808 14.8153 22.4336 13.2707 20.9056 12.1769C19.3777 11.083 17.5458 10.4949 15.6667 10.4949C13.7876 10.4949 11.9556 11.083 10.4277 12.1769C8.89981 13.2707 7.75259 14.8153 7.14695 16.5941C6.54132 18.373 6.50764 20.2967 7.05065 22.0956C7.59366 23.8946 8.68611 25.4784 10.1748 26.625C6.30855 28.2619 3.26168 31.5563 2.21356 35.625C2.15631 35.8468 2.15058 36.0786 2.19682 36.3029C2.24306 36.5272 2.34003 36.7379 2.4803 36.9189C2.62057 37.0999 2.80043 37.2464 3.00607 37.3471C3.21171 37.4478 3.43769 37.5002 3.66668 37.5H27.6667C27.8957 37.5002 28.1216 37.4478 28.3273 37.3471C28.5329 37.2464 28.7128 37.0999 28.8531 36.9189C28.9933 36.7379 29.0903 36.5272 29.1365 36.3029C29.1828 36.0786 29.1771 35.8468 29.1198 35.625C28.0717 31.5544 25.0248 28.26 21.1586 26.625Z" fill="#3139FB"/>
</g>
<defs>
<clipPath id="clip0_2019_413">
<rect width="48" height="48" fill="white" transform="translate(0.666687)"/>
</clipPath>
</defs>
</svg>
