<svg width="49" height="48" viewBox="0 0 49 48" fill="none" xmlns="http://www.w3.org/2000/svg">
<path d="M42.1871 21.7031C42.2842 22.4648 42.3331 23.232 42.3333 23.9999C42.3361 27.3633 41.3958 30.66 39.6193 33.5158C37.8427 36.3716 35.3011 38.6721 32.2829 40.1561C29.2647 41.6401 25.8909 42.2482 22.5445 41.9113C19.1981 41.5743 16.0132 40.3059 13.3514 38.2499C18.0746 37.0949 23.6302 34.7006 28.8089 31.7249C34.3289 28.5543 38.9883 25.0237 42.1871 21.7031ZM46.2914 11.3774C44.8571 8.90432 41.0714 8.34745 35.3227 9.7537C32.6612 7.69577 29.4759 6.42553 26.1287 6.08726C22.7815 5.74899 19.4065 6.35625 16.3871 7.84007C13.3677 9.32389 10.825 11.6248 9.04776 14.4813C7.27056 17.3379 6.33013 20.6357 6.3333 23.9999C6.33354 24.7716 6.38239 25.5425 6.47955 26.3081C1.28768 31.6874 1.36268 34.8749 2.37705 36.6224C3.3333 38.2799 5.3283 38.9999 7.9533 38.9999C9.77584 38.9622 11.5876 38.7105 13.3514 38.2499C12.3843 37.5023 11.4948 36.6593 10.6964 35.7337C7.45456 36.2737 5.44643 35.9212 4.97205 35.1168C4.6983 34.6462 4.85018 33.7593 5.3883 32.6793C5.92039 31.6678 6.56715 30.721 7.31581 29.8574C7.31668 29.8519 7.31668 29.8462 7.31581 29.8406V29.8556C8.05993 32.0086 9.20511 34.0012 10.6908 35.7281C14.6171 35.0737 20.3452 33.1199 27.3089 29.1187C32.5833 26.0981 38.2083 21.8756 41.3564 18.1537C40.6151 15.9977 39.4697 14.0027 37.9814 12.2756L37.9571 12.2474C37.9571 12.2568 37.9739 12.2643 37.9814 12.2756C40.6458 11.8349 43.1133 11.8687 43.7002 12.8831C43.8727 13.1774 43.8877 13.6181 43.7283 14.1956C43.4114 15.3787 42.5677 16.7324 41.3602 18.1574C41.7572 19.3092 42.0355 20.4985 42.1908 21.7068C44.5346 19.2693 46.0946 16.9537 46.6252 14.9718C46.9889 13.5956 46.8783 12.3881 46.2914 11.3774Z" fill="#3139FB"/>
</svg>
