<svg width="24" height="24" viewBox="0 0 24 24" fill="none" xmlns="http://www.w3.org/2000/svg">
<g clip-path="url(#clip0_38_1480)">
<path d="M14.25 9.75C13.0074 9.75 12 8.74264 12 7.5C12 6.25736 13.0074 5.25 14.25 5.25C15.4926 5.25 16.5 6.25736 16.5 7.5C16.5 8.74264 15.4926 9.75 14.25 9.75Z" stroke="black" stroke-width="2" stroke-linecap="round" stroke-linejoin="round"/>
<path d="M8.25 18.75C7.00736 18.75 6 17.7426 6 16.5C6 15.2574 7.00736 14.25 8.25 14.25C9.49264 14.25 10.5 15.2574 10.5 16.5C10.5 17.7426 9.49264 18.75 8.25 18.75Z" stroke="black" stroke-width="2" stroke-linecap="round" stroke-linejoin="round"/>
<path d="M12 7.5H3.75" stroke="black" stroke-width="2" stroke-linecap="round" stroke-linejoin="round"/>
<path d="M20.25 7.5H16.5" stroke="black" stroke-width="2" stroke-linecap="round" stroke-linejoin="round"/>
<path d="M6 16.5H3.75" stroke="black" stroke-width="2" stroke-linecap="round" stroke-linejoin="round"/>
<path d="M20.25 16.5H10.5" stroke="black" stroke-width="2" stroke-linecap="round" stroke-linejoin="round"/>
</g>
<defs>
<clipPath id="clip0_38_1480">
<rect width="24" height="24" fill="white" transform="matrix(-1 0 0 1 24 0)"/>
</clipPath>
</defs>
</svg>
